<svg width="1396" height="1396" viewBox="0 0 1396 1396" fill="none" xmlns="http://www.w3.org/2000/svg">
<circle cx="698.22" cy="698.22" r="681.22" fill="#DFCFB8"/>
<circle cx="698.22" cy="698.22" r="639.638" fill="#212B33"/>
<path d="M674.485 1204.6C661.385 1202.5 645.985 1196.5 647.385 1194.1C647.685 1193.7 653.685 1193 660.685 1192.7C683.885 1191.5 699.285 1187.9 721.385 1178.5C738.285 1171.3 745.485 1169.6 759.985 1169.6C767.985 1169.7 775.485 1170.3 780.985 1171.4C801.185 1175.7 821.385 1183 820.785 1185.9C820.585 1186.8 819.585 1187.4 818.485 1187.2C811.085 1186.1 785.685 1185.9 777.385 1187C765.985 1188.4 761.585 1189.6 744.685 1196.1C725.185 1203.6 718.185 1205.1 698.985 1205.5C688.285 1205.8 679.685 1205.5 674.485 1204.6Z" fill="#DFCFB8"/>
<path d="M918.985 1145.4C917.585 1145.2 911.985 1144.3 906.485 1143.4C892.485 1141.2 876.185 1136.2 857.485 1128.5C827.885 1116.3 813.385 1113 789.685 1113C766.385 1113 754.685 1115.6 725.385 1127C690.085 1140.8 671.585 1144.5 636.485 1144.4C605.385 1144.3 588.885 1141.4 561.485 1131.2C518.785 1115.3 508.085 1112.8 482.485 1112.9C463.385 1112.9 459.885 1113.5 433.485 1121.6L417.485 1126.4H400.985C385.785 1126.4 383.785 1126.2 375.485 1123.7C365.685 1120.6 345.185 1111.2 343.285 1108.8C342.185 1107.5 343.685 1107.2 356.785 1106.7C372.085 1106.1 390.285 1103.4 402.685 1099.9C406.685 1098.8 416.985 1095.3 425.685 1092.1C449.985 1083.1 460.885 1080.6 480.185 1079.4C505.785 1077.9 528.385 1082.5 568.485 1097.2C596.185 1107.4 610.785 1110.2 636.485 1110.3C663.785 1110.3 681.385 1107.2 707.885 1097.6C738.685 1086.3 753.885 1082.3 773.485 1080C800.785 1076.9 828.085 1080.9 858.685 1092.6C903.785 1109.7 914.085 1112.2 940.485 1112.2C966.385 1112.3 981.985 1109.2 1007.49 1098.9C1032.49 1088.9 1038.69 1087.5 1059.99 1087.5C1075.19 1087.5 1078.69 1087.8 1086.39 1089.9C1095.29 1092.2 1114.69 1099.5 1116.39 1101.1C1118.99 1103.5 1114.69 1104.3 1100.79 1104.1C1074.29 1103.7 1059.39 1108.2 1023.19 1127.4C1006.99 1136 995.485 1139.9 975.485 1143.7C967.785 1145.1 924.885 1146.5 918.985 1145.4Z" fill="#DFCFB8"/>
<path d="M929.485 1057C912.785 1055.5 900.685 1052.2 874.085 1042C857.085 1035.5 840.285 1030.6 824.685 1027.8C814.185 1025.8 809.185 1025.5 788.985 1025.5C757.785 1025.5 745.985 1027.8 708.985 1041C675.585 1052.9 663.985 1055.2 638.485 1055.3C612.585 1055.4 603.685 1053.6 560.885 1039.5C526.085 1028 514.685 1025.8 491.485 1025.6C480.485 1025.6 470.585 1026 465.985 1026.8C452.585 1029.2 430.785 1035.2 416.985 1040.2C385.085 1051.9 378.585 1053.5 366.885 1052.7C352.785 1051.8 338.085 1043 318.985 1024C303.085 1008.2 283.885 982.8 276.085 967.3C272.885 960.9 271.985 954.1 274.285 953.9C274.885 953.8 316.485 953.7 366.485 953.6C459.485 953.4 463.485 953.3 542.485 948.5C588.985 945.7 696.185 935.8 753.485 929C762.885 927.9 774.785 926.5 779.985 925.9C802.985 923.5 907.985 910.4 936.985 906.4C1011.89 896.2 1050.59 890.2 1070.49 885.8C1078.19 884.1 1086.29 882.6 1088.49 882.6C1092.39 882.5 1092.49 882.6 1092.79 886.3C1093.39 893.7 1085.69 920.1 1076.39 942C1061.59 977.4 1042.69 1006.7 1021.09 1028C1007.59 1041.3 1000.09 1046 983.885 1051.4C967.685 1056.8 948.985 1058.7 929.485 1057Z" fill="#DFCFB8"/>
<path d="M603.485 896.8C604.885 890.3 614.885 802.3 618.485 765.5C629.485 651 632.585 500.5 626.985 357.5C625.185 311.7 623.985 283 622.985 264.5C622.385 254.6 621.485 238 620.985 227.5C620.385 217.1 619.685 205 619.385 200.7L618.885 192.9L621.685 194.4C630.285 198.9 686.685 252.7 711.885 280.5C782.585 358.4 832.085 427.8 877.185 512.5C918.985 590.9 948.485 662.6 979.285 761C989.085 792.1 997.085 820.3 996.785 822.4C996.385 825.1 992.785 826.1 950.185 835.9C866.385 855.1 760.585 875.6 679.985 888.1C655.685 891.9 606.185 899 604.285 899C603.385 899 603.085 898.2 603.485 896.8Z" fill="#DFCFB8"/>
<path d="M330.485 863.9C307.985 863 296.285 861.7 294.785 860.2C292.785 858.2 295.585 854.5 310.685 839.7C389.785 762.2 454.285 674 504.385 575C533.285 517.9 555.785 462.8 576.285 399C588.285 361.9 599.985 319.2 599.985 312.9C599.985 311.9 600.485 311 600.985 311C601.985 311 601.985 329.4 600.385 485.5C600.085 516.9 599.685 544.8 599.485 547.5C599.285 550.3 598.885 563.8 598.485 577.5C597.085 634 593.185 711.5 589.885 750C589.385 756.3 588.485 767.1 587.885 774C587.385 780.9 585.785 797.5 584.485 811C583.185 824.5 581.785 839 581.385 843.2C580.885 849.1 580.385 851.1 579.085 851.4C576.485 852.2 550.585 855.8 535.985 857.4C517.985 859.5 489.785 861.7 466.485 863C440.185 864.5 355.885 865 330.485 863.9Z" fill="#DFCFB8"/>
</svg>
